<svg xmlns="http://www.w3.org/2000/svg" id="Capa_1" enable-background="new 0 0 512 512" height="512" viewBox="0 0 512 512" width="512"><g><g><g><path d="m54.334 175.519h403.333v185.665h-403.333z" fill="#c9c9c9"/></g><g><path d="m54.334 175.519h403.333v63.228h-403.333z" fill="#bdbdbd"/></g><g><path d="m448.227 122.841h-384.454c-6.516 0-12.158 4.524-13.575 10.884l-13.805 61.965c-1.935 8.688 4.675 16.932 13.575 16.932h412.064c8.901 0 15.511-8.245 13.575-16.932l-13.805-61.966c-1.416-6.36-7.059-10.883-13.575-10.883z" fill="#5e745d"/></g><g><path d="m245.405 10.573-106.071 67.42v44.848h233.333v-44.849l-106.071-67.42c-6.466-4.109-14.725-4.109-21.191.001z" fill="#c9c9c9"/></g><g><path d="m342.667 58.924c0 18.732-15.185 33.917-33.916 33.917h-169.418v30h233.333v-44.849z" fill="#bdbdbd"/></g><g><g><path d="m362.171 156.41-95.575-60.748c-6.466-4.11-14.725-4.11-21.191 0l-95.575 60.748c-6.537 4.155-10.496 11.363-10.496 19.109v185.665h233.333v-185.665c0-7.746-3.959-14.954-10.496-19.109z" fill="#f5f8f9"/></g><g><path d="m139.333 260.766h233.333v100.418h-233.333z" fill="#e8edf2"/></g></g><g><g><path d="m190.667 218.517h130.667v142.667h-130.667z" fill="#cc8383"/></g><g><path d="m190.667 260.766h130.667v100.418h-130.667z" fill="#e99898"/></g></g><g><path d="m7.5 406.657v-93.982c0-11.046 8.954-20 20-20h457c11.046 0 20 8.954 20 20v93.982c0 11.046-8.954 20-20 20h-457c-11.045 0-20-8.954-20-20z" fill="#e8edf2"/></g><g><path d="m484.5 292.675h-10v83.982c0 11.046-8.954 20-20 20h-447v10c0 11.046 8.954 20 20 20h457c11.046 0 20-8.954 20-20v-93.982c0-11.046-8.954-20-20-20z" fill="#cddbdf"/></g><g><path d="m27.474 490.354c0 7.807 6.329 14.137 14.137 14.137h428.78c7.807 0 14.137-6.329 14.137-14.137v-20.78h-457.054z" fill="#fcd69a"/></g><g><path d="m444.649 426.657h-377.298c-22.024 0-39.878 17.854-39.878 39.878v3.039h457.053v-3.039c.001-22.024-17.853-39.878-39.877-39.878z" fill="#5e745d"/></g></g><g><path d="m324.887 340.066c4.143 0 7.5-3.358 7.5-7.5s-3.357-7.5-7.5-7.5h-22.729c-4.143 0-7.5 3.358-7.5 7.5v53.941c0 4.142 3.357 7.5 7.5 7.5h22.729c4.143 0 7.5-3.358 7.5-7.5s-3.357-7.5-7.5-7.5h-15.229v-11.971h13.553c4.143 0 7.5-3.358 7.5-7.5s-3.357-7.5-7.5-7.5h-13.553v-11.971h15.229z" fill="#000000"/><path d="m453.554 340.066c4.143 0 7.5-3.358 7.5-7.5s-3.357-7.5-7.5-7.5h-22.729c-4.143 0-7.5 3.358-7.5 7.5v53.941c0 4.142 3.357 7.5 7.5 7.5h22.729c4.143 0 7.5-3.358 7.5-7.5s-3.357-7.5-7.5-7.5h-15.229v-11.971h13.553c4.143 0 7.5-3.358 7.5-7.5s-3.357-7.5-7.5-7.5h-13.553v-11.971h15.229z" fill="#000000"/><path d="m226.748 378.962c-.015 0-.028 0-.043 0-3.455.02-7.761.037-11.347.043v-46.439c0-4.142-3.357-7.5-7.5-7.5s-7.5 3.358-7.5 7.5v53.896c0 3.653 2.633 6.775 6.233 7.392.541.093.918.158 6.898.158 2.898 0 7.112-.016 13.299-.05 4.142-.023 7.481-3.4 7.458-7.542-.022-4.128-3.375-7.458-7.498-7.458z" fill="#000000"/><path d="m274.434 378.962c-.015 0-.028 0-.043 0-3.455.02-7.761.037-11.347.043v-46.439c0-4.142-3.357-7.5-7.5-7.5s-7.5 3.358-7.5 7.5v53.896c0 3.653 2.633 6.775 6.233 7.392.541.093.918.158 6.898.158 2.898 0 7.112-.016 13.299-.05 4.142-.023 7.481-3.4 7.458-7.542-.023-4.128-3.375-7.458-7.498-7.458z" fill="#000000"/><path d="m105.224 373.143c-3.174-2.659-7.905-2.241-10.565.935-.442.528-.922 1.024-1.427 1.473-2.574 2.293-5.877 3.456-9.814 3.456-10.736 0-19.471-8.734-19.471-19.471s8.734-19.471 19.471-19.471c3.903 0 7.666 1.148 10.882 3.321 3.432 2.319 8.095 1.416 10.413-2.016 2.318-3.433 1.416-8.095-2.017-10.414-5.704-3.854-12.371-5.891-19.278-5.891-19.007 0-34.471 15.463-34.471 34.471s15.464 34.471 34.471 34.471c7.619 0 14.463-2.509 19.791-7.255 1.048-.933 2.04-1.957 2.95-3.043 2.658-3.176 2.24-7.906-.935-10.566z" fill="#000000"/><path d="m152.572 325.066c-19.007 0-34.471 15.463-34.471 34.471s15.464 34.471 34.471 34.471 34.471-15.463 34.471-34.471-15.464-34.471-34.471-34.471zm0 53.941c-10.736 0-19.471-8.734-19.471-19.471s8.734-19.471 19.471-19.471 19.471 8.734 19.471 19.471-8.734 19.471-19.471 19.471z" fill="#000000"/><path d="m402.291 352.166h-16.214c-4.143 0-7.5 3.358-7.5 7.5s3.357 7.5 7.5 7.5h7.822c-2.328 8.783-8.835 12.101-15.003 12.101-10.808 0-19.601-8.793-19.601-19.601s8.793-19.601 19.601-19.601c3.929 0 7.717 1.156 10.953 3.343 3.435 2.319 8.096 1.417 10.414-2.016s1.416-8.094-2.016-10.413c-5.727-3.869-12.418-5.914-19.352-5.914-19.079 0-34.601 15.522-34.601 34.601s15.521 34.601 34.601 34.601c18.19 0 30.895-14.229 30.895-34.601.001-4.142-3.356-7.5-7.499-7.5z" fill="#000000"/><path d="m484.5 285.175h-19.333v-65.288c5.316-.778 10.146-3.513 13.568-7.782 4.084-5.095 5.612-11.672 4.192-18.046l-13.805-61.965c-2.197-9.864-10.79-16.753-20.896-16.753h-68.061v-23.695l8.039 5.11c1.248.793 2.64 1.171 4.017 1.171 2.479 0 4.907-1.229 6.337-3.478 2.222-3.496 1.188-8.131-2.307-10.353l-19.561-12.433-106.071-67.42c-8.88-5.645-20.357-5.645-29.237 0l-106.071 67.42-19.562 12.434c-3.495 2.222-4.528 6.857-2.307 10.353 1.43 2.249 3.856 3.478 6.337 3.478 1.376 0 2.769-.378 4.017-1.171l8.039-5.11v23.694h-68.062c-10.105 0-18.698 6.889-20.896 16.753l-13.805 61.966c-1.42 6.374.109 12.952 4.194 18.047 3.422 4.268 8.251 7.003 13.567 7.78v65.288h-19.333c-15.164 0-27.5 12.336-27.5 27.5v93.982c0 15.164 12.336 27.5 27.5 27.5h5.31c-7.951 8.478-12.836 19.865-12.836 32.378v3.04 20.779c0 11.931 9.706 21.637 21.637 21.637h299.724c4.143 0 7.5-3.358 7.5-7.5s-3.357-7.5-7.5-7.5h-299.725c-3.659 0-6.637-2.977-6.637-6.637v-13.279h442.053v13.279c0 3.66-2.978 6.637-6.637 6.637h-94.052c-4.143 0-7.5 3.358-7.5 7.5s3.357 7.5 7.5 7.5h94.052c11.931 0 21.637-9.706 21.637-21.637v-20.779-3.04c0-12.513-4.884-23.9-12.836-32.378h5.309c15.164 0 27.5-12.336 27.5-27.5v-93.982c.001-15.164-12.335-27.5-27.499-27.5zm-104.333 0v-65.053h70v65.053zm74.315-149.82 13.805 61.965c.425 1.908-.032 3.877-1.255 5.402-1.224 1.525-3.046 2.4-5 2.4h-81.865v-29.603c0-10.367-5.224-19.877-13.973-25.438l-31.057-19.74h113.091c3.024-.001 5.596 2.061 6.254 5.014zm-307.648-53.243 102.595-65.209c3.993-2.539 9.152-2.538 13.144 0l102.595 65.209v33.229h-53.63l-40.918-26.008c-8.88-5.645-20.357-5.645-29.237 0l-40.918 26.008h-53.63v-33.229zm-101.865 120.611c-1.223-1.525-1.681-3.495-1.256-5.402l13.806-61.965c.658-2.953 3.23-5.015 6.255-5.015h113.091l-31.057 19.74c-8.749 5.562-13.973 15.071-13.973 25.438v29.603h-81.867c-2.676 0-4.28-1.503-4.999-2.399zm16.865 17.399h70v6.397c0 4.142 3.357 7.5 7.5 7.5s7.5-3.358 7.5-7.5v-51c0-5.208 2.624-9.985 7.02-12.779l95.575-60.748c3.993-2.539 9.152-2.538 13.144 0l95.575 60.748c4.396 2.794 7.02 7.571 7.02 12.779v109.656h-36.333v-66.658c0-4.142-3.357-7.5-7.5-7.5h-130.668c-4.143 0-7.5 3.358-7.5 7.5v66.658h-36.333v-23.652c0-4.142-3.357-7.5-7.5-7.5s-7.5 3.358-7.5 7.5v23.652h-70zm136.333 65.053v-59.158h50.333v59.158zm65.333-59.158h50.334v59.158h-50.334zm213.221 236.057h-441.442c2.18-15.751 15.731-27.917 32.072-27.917h377.298c16.34 0 29.892 12.166 32.072 27.917zm20.279-55.417c0 6.893-5.607 12.5-12.5 12.5h-457c-6.893 0-12.5-5.607-12.5-12.5v-93.982c0-6.893 5.607-12.5 12.5-12.5h457c6.893 0 12.5 5.607 12.5 12.5z" fill="#000000"/></g></g></svg>